<svg width="40" height="40" viewBox="0 0 40 40" fill="none" xmlns="http://www.w3.org/2000/svg">
<g clip-path="url(#clip0_3_39)">
<path d="M37.7905 12.7877L37.7732 12.766L37.7536 12.7465C37.2778 12.2707 36.5561 11.9 35.8 11.9H20.4C20.1431 11.9 19.9 11.6919 19.9 11.4C19.9 11.1081 20.1431 10.9 20.4 10.9H35.8C36.8241 10.9 37.7924 11.4111 38.5176 12.2224C39.222 13.1083 39.482 14.1592 39.3076 15.2132L37.1098 27.0015C36.8476 28.2128 35.8927 29.1578 34.7876 29.4128L34.0579 29.5812L34.4932 30.1906C34.9303 30.8027 35.2 31.6003 35.2 32.5C35.2 34.7239 33.4239 36.5 31.2 36.5C28.9762 36.5 27.2 34.7239 27.2 32.5C27.2 31.7062 27.4663 30.9074 27.9069 30.2906L28.4716 29.5H27.5H21.4H20.4284L20.9932 30.2906C21.4337 30.9074 21.7 31.7062 21.7 32.5C21.7 34.7239 19.9239 36.5 17.7 36.5C15.4762 36.5 13.7 34.7239 13.7 32.5C13.7 31.6338 14.0476 30.8336 14.5069 30.1906L14.9101 29.6261L14.2471 29.4221C13.1032 29.0702 12.2636 28.2094 12.095 27.0293L12.0937 27.0201L12.092 27.011L8.29203 6.01098L8.21767 5.60001H7.80002H0.900024C0.643115 5.60001 0.400024 5.39193 0.400024 5.10001C0.400024 4.80808 0.643115 4.60001 0.900024 4.60001H8.60003C8.87824 4.60001 9.05795 4.74744 9.1089 4.99397L13.0079 26.6884L13.0124 26.7132L13.0193 26.7374C13.2726 27.6239 14.0488 28.3 15 28.3H34.2C35.0938 28.3 36.0455 27.6698 36.1933 26.6823L37.0915 21.8921L37.2025 21.3H36.6H25.9C25.6431 21.3 25.4 21.0919 25.4 20.8C25.4 20.5081 25.6431 20.3 25.9 20.3H36.9H37.3181L37.3921 19.8886L38.2862 14.9216C38.5368 14.1216 38.2495 13.3614 37.7905 12.7877ZM17.7 35.4C19.3762 35.4 20.7 34.0761 20.7 32.4C20.7 30.7239 19.3762 29.4 17.7 29.4C16.0239 29.4 14.7 30.7239 14.7 32.4C14.7 34.0761 16.0239 35.4 17.7 35.4ZM28.3 32.4C28.3 34.0761 29.6239 35.4 31.3 35.4C32.9762 35.4 34.3 34.0761 34.3 32.4C34.3 30.7239 32.9762 29.4 31.3 29.4C29.6239 29.4 28.3 30.7239 28.3 32.4Z" stroke="#BAA388"/>
</g>
<defs>
<clipPath id="clip0_3_39">
<rect width="40" height="40" fill="white"/>
</clipPath>
</defs>
</svg>
